<?xml version="1.0" encoding="UTF-8"?>
<!DOCTYPE svg PUBLIC "-//W3C//DTD SVG 1.1//EN" "http://www.w3.org/Graphics/SVG/1.1/DTD/svg11.dtd">
<!-- Creator: CorelDRAW X7 -->
<svg xmlns="http://www.w3.org/2000/svg" xml:space="preserve" width="297mm" height="210mm" version="1.1" style="shape-rendering:geometricPrecision; text-rendering:geometricPrecision; image-rendering:optimizeQuality; fill-rule:evenodd; clip-rule:evenodd"
viewBox="0 0 29700 21000"
 xmlns:xlink="http://www.w3.org/1999/xlink">
 <defs>
  <style type="text/css">
   <![CDATA[
    .str0 {stroke:#039BC6;stroke-width:7.62}
    .fil0 {fill:#4B4B4D}
    .fil1 {fill:#B1E2FA}
    .fil3 {fill:#B1E2FA}
    .fil2 {fill:#02BFF2}
    .fil6 {fill:#008BB8}
    .fil7 {fill:#039BC6}
    .fil4 {fill:#06769B}
    .fil5 {fill:#24B8EB}
    .fil8 {fill:#60CBF1}
   ]]>
  </style>
 </defs>
 <g id="Camada_x0020_1">
  <metadata id="CorelCorpID_0Corel-Layer"/>
  <g id="_1455964435696">
   <g>
    <rect class="fil0" x="13811" y="3784" width="2531" height="2478"/>
    <rect class="fil1" x="14137" y="4128" width="1861" height="1861"/>
    <g>
     <rect class="fil0" x="14318" y="4291" width="150" height="1526"/>
     <rect class="fil0" x="14598" y="4291" width="150" height="1526"/>
     <rect class="fil0" x="14868" y="4291" width="150" height="1526"/>
     <rect class="fil0" x="15147" y="4291" width="150" height="1526"/>
     <rect class="fil0" x="15427" y="4291" width="150" height="1526"/>
     <rect class="fil0" x="15707" y="4291" width="150" height="1526"/>
    </g>
   </g>
   <g>
    <rect class="fil0" x="13811" y="5888" width="2531" height="2478"/>
    <rect class="fil2" x="14137" y="6232" width="1861" height="1861"/>
    <g>
     <rect class="fil0" x="14318" y="6395" width="150" height="1526"/>
     <rect class="fil0" x="14598" y="6395" width="150" height="1526"/>
     <rect class="fil0" x="14868" y="6395" width="150" height="1526"/>
     <rect class="fil0" x="15147" y="6395" width="150" height="1526"/>
     <rect class="fil0" x="15427" y="6395" width="150" height="1526"/>
     <rect class="fil0" x="15707" y="6395" width="150" height="1526"/>
    </g>
   </g>
   <g>
    <rect class="fil0" x="11599" y="5888" width="2531" height="2478"/>
    <rect class="fil1" x="11926" y="6232" width="1861" height="1861"/>
    <g>
     <rect class="fil0" x="12107" y="6395" width="150" height="1526"/>
     <rect class="fil0" x="12386" y="6395" width="150" height="1526"/>
     <rect class="fil0" x="12656" y="6395" width="150" height="1526"/>
     <rect class="fil0" x="12936" y="6395" width="150" height="1526"/>
     <rect class="fil0" x="13216" y="6395" width="150" height="1526"/>
     <rect class="fil0" x="13496" y="6395" width="150" height="1526"/>
    </g>
   </g>
   <g>
    <rect class="fil0" x="9411" y="5888" width="2531" height="2478"/>
    <rect class="fil2" x="9737" y="6232" width="1861" height="1861"/>
    <g>
     <rect class="fil0" x="9918" y="6395" width="150" height="1526"/>
     <rect class="fil0" x="10198" y="6395" width="150" height="1526"/>
     <rect class="fil0" x="10468" y="6395" width="150" height="1526"/>
     <rect class="fil0" x="10748" y="6395" width="150" height="1526"/>
     <rect class="fil0" x="11027" y="6395" width="150" height="1526"/>
     <rect class="fil0" x="11307" y="6395" width="150" height="1526"/>
    </g>
   </g>
   <g>
    <rect class="fil0" x="15998" y="8012" width="2531" height="2478"/>
    <rect class="fil2" x="16324" y="8356" width="1861" height="1861"/>
    <g>
     <rect class="fil0" x="16505" y="8519" width="150" height="1526"/>
     <rect class="fil0" x="16785" y="8519" width="150" height="1526"/>
     <rect class="fil0" x="17055" y="8519" width="150" height="1526"/>
     <rect class="fil0" x="17335" y="8519" width="150" height="1526"/>
     <rect class="fil0" x="17614" y="8519" width="150" height="1526"/>
     <rect class="fil0" x="17894" y="8519" width="150" height="1526"/>
    </g>
   </g>
   <g>
    <rect class="fil0" x="13809" y="8012" width="2531" height="2478"/>
    <rect class="fil3" x="14136" y="8356" width="1861" height="1861"/>
    <g>
     <rect class="fil0" x="14317" y="8519" width="150" height="1526"/>
     <rect class="fil0" x="14596" y="8519" width="150" height="1526"/>
     <rect class="fil0" x="14866" y="8519" width="150" height="1526"/>
     <rect class="fil0" x="15146" y="8519" width="150" height="1526"/>
     <rect class="fil0" x="15426" y="8519" width="150" height="1526"/>
     <rect class="fil0" x="15706" y="8519" width="150" height="1526"/>
    </g>
   </g>
   <g>
    <rect class="fil0" x="11614" y="8012" width="2531" height="2478"/>
    <rect class="fil2" x="11940" y="8356" width="1861" height="1861"/>
    <g>
     <rect class="fil0" x="12121" y="8519" width="150" height="1526"/>
     <rect class="fil0" x="12401" y="8519" width="150" height="1526"/>
     <rect class="fil0" x="12671" y="8519" width="150" height="1526"/>
     <rect class="fil0" x="12951" y="8519" width="150" height="1526"/>
     <rect class="fil0" x="13231" y="8519" width="150" height="1526"/>
     <rect class="fil0" x="13510" y="8519" width="150" height="1526"/>
    </g>
   </g>
   <g>
    <rect class="fil0" x="9415" y="8012" width="2531" height="2478"/>
    <rect class="fil3" x="9742" y="8356" width="1861" height="1861"/>
    <g>
     <rect class="fil0" x="9922" y="8519" width="150" height="1526"/>
     <rect class="fil0" x="10202" y="8519" width="150" height="1526"/>
     <rect class="fil0" x="10472" y="8519" width="150" height="1526"/>
     <rect class="fil0" x="10752" y="8519" width="150" height="1526"/>
     <rect class="fil0" x="11032" y="8519" width="150" height="1526"/>
     <rect class="fil0" x="11312" y="8519" width="150" height="1526"/>
    </g>
   </g>
   <g>
    <rect class="fil0" x="7207" y="8012" width="2531" height="2478"/>
    <rect class="fil2" x="7534" y="8356" width="1861" height="1861"/>
    <g>
     <rect class="fil0" x="7715" y="8519" width="150" height="1526"/>
     <rect class="fil0" x="7994" y="8519" width="150" height="1526"/>
     <rect class="fil0" x="8264" y="8519" width="150" height="1526"/>
     <rect class="fil0" x="8544" y="8519" width="150" height="1526"/>
     <rect class="fil0" x="8824" y="8519" width="150" height="1526"/>
     <rect class="fil0" x="9104" y="8519" width="150" height="1526"/>
    </g>
   </g>
   <path class="fil4" d="M24443 9572c-532,-340 -665,-846 -762,-1343 -40,214 -79,427 -118,640 19,344 152,668 469,904 137,-67 274,-134 411,-201z"/>
   <path class="fil5" d="M24371 9605c-532,-339 -570,-619 -716,-1155 -39,213 5,-52 -34,162 19,343 350,798 667,1034 137,-67 -53,27 83,-41z"/>
   <path class="fil4" d="M25352 8744c-911,-339 -1246,-988 -1523,-1634 -6,296 -145,419 -151,714 117,457 538,1035 1090,1281 194,-120 389,-241 584,-361z"/>
   <path class="fil5" d="M25300 8987c-997,-428 -1140,-891 -1538,-1761 -7,373 -5,-88 -12,285 128,578 816,1256 1421,1568 213,-152 -84,60 129,-92z"/>
   <path class="fil4" d="M4771 9755c376,-27 735,-114 1042,-308 56,-140 112,-281 168,-421 -449,295 -1025,417 -1692,463 161,89 321,178 482,266z"/>
   <path class="fil4" d="M4154 9059c522,26 1138,-1 1605,-150 109,-132 218,-263 327,-394 -684,229 -1499,269 -2423,221 200,110 292,212 491,323z"/>
   <path class="fil5" d="M3943 8901c495,27 1417,-40 1858,-189 104,-132 -12,20 91,-111 -648,229 -1222,223 -2109,206 188,111 -29,-16 160,94z"/>
   <path class="fil5" d="M4530 9622c377,-27 1060,-192 1367,-386 56,-140 -6,22 50,-118 -450,295 -883,350 -1554,429 161,89 -24,-13 137,75z"/>
   <path class="fil4" d="M6759 10517c-317,206 -588,455 -764,774 19,150 38,300 57,450 251,-475 695,-861 1257,-1224 -183,0 -367,0 -550,0z"/>
   <path class="fil6" d="M7997 10491c-782,633 -1403,1362 -1734,2221 63,174 126,348 189,523 532,-1317 1267,-2192 2138,-2718 0,0 -614,0 -593,-26z"/>
   <path class="fil6" d="M9182 10517c-1040,979 -1798,2152 -2386,3413 100,154 200,307 300,460 648,-1365 1429,-2704 2643,-3899 -186,8 -371,17 -557,26z"/>
   <path class="fil6" d="M10452 10517c-1155,1413 -2040,2991 -2631,4687 171,135 341,271 511,407 603,-1880 1517,-3609 2798,-5094 -226,0 -452,0 -678,0z"/>
   <path class="fil6" d="M11947 10491c-1224,1641 -2166,3511 -2656,5661 225,85 450,170 676,255 551,-2424 1416,-4452 2644,-5916 -221,0 -443,0 -664,0z"/>
   <path class="fil7" d="M13267 10517c-1018,1966 -1590,4077 -1875,6212 376,27 581,42 957,69 46,-2160 454,-4316 1460,-6307 -180,8 -361,17 -542,26z"/>
   <path class="fil7" d="M14453 10517c-553,2028 -887,4155 -932,6297 372,-34 744,-68 1116,-103 -89,-2027 75,-4136 438,-6220 -207,8 -415,17 -622,26z"/>
   <path class="fil7" d="M15723 10516c260,1983 101,4015 -40,5997 324,-95 647,-189 971,-284 -13,-1860 -13,-3764 -313,-5738 -206,8 -412,17 -618,25z"/>
   <path class="fil6" d="M17120 10516c625,1821 405,3575 467,5325 239,-125 479,-249 719,-373 -89,-1616 162,-3175 -488,-4952 17,-25 -655,3 -698,0z"/>
   <path class="fil6" d="M18757 10516c596,1497 522,3009 303,4471 220,-170 439,-339 659,-508 181,-1305 235,-2658 -327,-3963 -211,0 -423,0 -635,0z"/>
   <path class="fil6" d="M20184 10496c578,1259 525,2333 346,3217 190,-218 380,-436 569,-653 170,-811 67,-1674 -367,-2591 -252,13 -295,15 -548,27z"/>
   <path class="fil4" d="M21635 10405c385,501 338,1021 260,1522 110,-188 219,-375 329,-562 99,-330 84,-680 -135,-1010 -151,17 -303,34 -454,50z"/>
   <path class="fil5" d="M7034 10517c-317,206 -835,680 -1011,999 19,150 -5,-22 14,128 251,-476 604,-733 1153,-1127 -184,0 27,0 -156,0z"/>
   <path class="fil5 str0" d="M8261 10491c-782,633 -1573,1623 -1904,2482 63,175 -15,-43 47,131 539,-1275 1158,-1999 2018,-2590 0,0 -181,3 -161,-23z"/>
   <path class="fil5" d="M9512 10502c-1041,979 -1954,2433 -2542,3694 100,154 -45,-68 55,85 648,-1365 1348,-2568 2562,-3764 -186,9 110,-24 -75,-15z"/>
   <path class="fil5" d="M10730 10487c-1121,1441 -2045,3246 -2595,4955 174,132 -43,-33 130,99 558,-1894 1441,-3543 2685,-5059 -226,6 6,0 -220,5z"/>
   <path class="fil5" d="M12279 10491c-1224,1641 -2160,3639 -2650,5788 225,85 -56,-21 169,64 552,-2424 1419,-4388 2647,-5852 -222,0 55,0 -166,0z"/>
   <path class="fil8" d="M13413 10510c-1018,1966 -1406,4078 -1691,6213 376,27 14,31 389,58 46,-2160 420,-4286 1427,-6277 -180,8 56,-3 -125,6z"/>
   <path class="fil8" d="M14737 10505c-552,2028 -800,4133 -845,6275 372,-34 0,0 372,-34 -88,-2028 223,-4162 586,-6246 -207,9 95,-4 -113,5z"/>
   <path class="fil8" d="M15912 10509c260,1982 259,3920 118,5903 323,-95 -12,3 312,-92 -13,-1859 -10,-3842 -310,-5816 -206,8 86,-4 -120,5z"/>
   <path class="fil5" d="M17263 10491c626,1820 456,3499 518,5249 240,-124 -54,-2 185,-127 -88,-1616 54,-3346 -595,-5122 16,-25 -64,3 -108,0z"/>
   <path class="fil5" d="M18876 10516c596,1497 593,2862 374,4324 220,-169 -80,62 139,-107 182,-1305 247,-2912 -314,-4217 -212,0 13,0 -199,0z"/>
   <path class="fil5" d="M20282 10513c550,1272 619,2027 419,2906 195,-213 -92,102 103,-112 188,-807 20,-1872 -393,-2798 -253,7 124,-3 -129,4z"/>
   <path class="fil5" d="M21713 10398c385,500 326,776 281,1330 110,-187 -22,46 87,-141 99,-330 -57,-869 -276,-1199 -151,16 60,-7 -92,10z"/>
   <path class="fil4" d="M3591 8366c635,-7 1682,-103 2244,-282 128,-139 77,-260 206,-398 -824,273 -1684,353 -2808,364 246,98 113,218 358,316z"/>
   <path class="fil5" d="M3490 8095c600,52 1725,32 2272,-94 134,-126 -17,20 117,-106 -803,196 -1500,160 -2578,98 223,120 -33,-18 189,102z"/>
   <path class="fil4" d="M3526 7649c680,-73 1794,-277 2379,-513 125,-151 58,-267 183,-418 -857,357 -1772,526 -2976,654 273,72 142,205 414,277z"/>
   <path class="fil5" d="M3392 7390c648,-11 1853,-147 2427,-329 131,-139 -16,22 115,-117 -841,277 -1593,313 -2755,364 251,96 -37,-15 213,82z"/>
   <path class="fil4" d="M26460 7743c-965,-114 -2016,-1099 -2438,-1661 63,288 -188,388 -124,676 221,417 1485,1365 2079,1474 161,-163 322,-326 483,-489z"/>
   <path class="fil5" d="M26323 7868c-1071,-180 -1679,-769 -2271,-1520 81,365 -27,-84 55,280 261,531 1450,1200 2111,1360 172,-198 -67,78 105,-120z"/>
   <path class="fil0" d="M5698 6124c315,821 -52,3487 -63,4003 -1345,-314 -2325,-2100 -2359,-3414 -95,32 -191,64 -286,95 -84,1215 1207,3382 2639,3656 -2,96 -3,191 -5,286 -21,1275 171,2400 940,3593 1672,2597 4482,2978 7572,2683 3803,-363 6715,-2274 8452,-5596 211,-403 414,-831 610,-1271 1160,-274 3228,-1617 3807,-3119 -120,-106 -240,-212 -360,-318 -510,1485 -2261,2691 -3254,2997 345,-798 339,-3084 1260,-4027 -113,-35 -225,-71 -338,-106 -809,666 -999,3393 -1375,4257 -1068,261 -2210,322 -3257,335l-1164 -22 -12562 21c113,-496 294,-3450 61,-4074 -106,7 -212,14 -318,21zm17058 4128c-127,278 -257,549 -392,812 -2107,4070 -5885,6077 -10642,5659 -3765,-331 -5650,-2751 -5759,-5932 -3,-90 -6,-182 -7,-274l13725 -1c1032,-39 2079,-79 3075,-264zm-16800 243l0 0 0 22 0 -22z"/>
  </g>
 </g>
</svg>
